<svg id="Layer_1" data-name="Layer 1" xmlns="http://www.w3.org/2000/svg" xmlns:xlink="http://www.w3.org/1999/xlink" viewBox="0 0 48.7373 68.0719"><defs><linearGradient id="linear-gradient" x1="17.092" y1="57.5302" x2="25.4548" y2="62.1052" gradientUnits="userSpaceOnUse"><stop offset="0" stop-color="#fff"/><stop offset="1" stop-color="#fff" stop-opacity="0"/></linearGradient></defs><title>lyrical-science-icon</title><circle cx="27.6952" cy="9.7075" r="2.3611" style="fill:#58595a"/><circle cx="23.8567" cy="3.6571" r="2.8039" style="fill:#58595a"/><circle cx="31.8257" cy="2.0169" r="2.0168" style="fill:#58595a"/><polygon points="37.474 67.969 11.404 67.969 24.732 47.257 37.474 67.969" style="fill:#824396"/><polygon points="48.737 67.531 48.737 67.975 37.481 67.975 37.474 67.969 24.732 47.257 11.404 67.969 11.398 67.975 0 67.975 0 67.531 19.991 38.503 19.991 23.425 25.691 21.508 17.219 21.508 17.219 17.791 31.827 17.791 31.827 21.508 29.466 21.508 29.466 38.503 48.737 67.531" style="fill:#58595a"/><path d="M13.8388,67.9677,24.6609,49.4537S29.383,69.6918,13.8388,67.9677Z" style="fill:url(#linear-gradient)"/></svg>